<svg xmlns="http://www.w3.org/2000/svg" xmlns:xlink="http://www.w3.org/1999/xlink" width="500" zoomAndPan="magnify" viewBox="0 0 375 374.999991" height="500" preserveAspectRatio="xMidYMid meet" version="1.0"><defs><clipPath id="e6f815855c"><path d="M 132 315 L 182 315 L 182 368.25 L 132 368.25 Z M 132 315 " clip-rule="nonzero"/></clipPath><clipPath id="f2b08e940e"><path d="M 226 315 L 276 315 L 276 368.25 L 226 368.25 Z M 226 315 " clip-rule="nonzero"/></clipPath></defs><path fill="#ff5173" d="M 298.199219 145.074219 C 298.199219 145.074219 300.316406 158.308594 305.09375 158.71875 C 309.871094 159.128906 308.410156 150.769531 308.410156 150.769531 C 308.410156 150.769531 317.792969 165.078125 320.792969 162.742188 C 323.789062 160.40625 318.011719 152.007812 318.011719 152.007812 C 318.011719 152.007812 348.957031 169.15625 352.109375 158.804688 C 355.261719 148.457031 323.304688 143 323.304688 143 C 323.304688 143 330.785156 140.257812 328.308594 136.722656 C 325.835938 133.191406 315.824219 138.636719 315.824219 138.636719 C 315.824219 138.636719 322.074219 132.921875 319.394531 129.644531 C 316.714844 126.367188 302.53125 136.800781 302.53125 136.800781 Z M 298.199219 145.074219 " fill-opacity="1" fill-rule="nonzero"/><path fill="#4e2800" d="M 320.015625 164.617188 C 319.839844 164.617188 319.652344 164.601562 319.453125 164.570312 C 316.667969 164.109375 312.796875 159.613281 310.019531 155.886719 C 309.796875 157.042969 309.375 158.160156 308.617188 158.988281 C 307.976562 159.683594 306.828125 160.480469 304.953125 160.328125 C 299.210938 159.835938 296.992188 147.746094 296.605469 145.332031 C 296.550781 144.988281 296.609375 144.632812 296.769531 144.324219 L 301.101562 136.050781 C 301.214844 135.832031 301.375 135.644531 301.574219 135.5 C 307.332031 131.261719 317.464844 124.738281 320.644531 128.621094 C 322.1875 130.507812 321.824219 132.746094 320.859375 134.726562 C 324.148438 133.703125 327.882812 133.296875 329.632812 135.796875 C 330.414062 136.910156 330.625 138.132812 330.246094 139.339844 C 329.878906 140.507812 328.992188 141.488281 327.984375 142.277344 C 335.296875 143.878906 349.0625 147.640625 352.878906 153.820312 C 353.960938 155.574219 354.222656 157.410156 353.652344 159.277344 C 353.113281 161.046875 351.898438 162.359375 350.132812 163.074219 C 343.582031 165.726562 329.628906 159.679688 322.089844 155.949219 C 323.371094 158.882812 324.070312 162.238281 321.785156 164.019531 C 321.414062 164.308594 320.824219 164.617188 320.015625 164.617188 Z M 308.40625 149.152344 C 308.9375 149.152344 309.453125 149.417969 309.757812 149.882812 C 313.757812 155.980469 318.550781 161.359375 320.011719 161.382812 C 320.703125 160.765625 319.15625 156.53125 316.679688 152.921875 C 316.253906 152.304688 316.308594 151.476562 316.8125 150.917969 C 317.320312 150.367188 318.136719 150.226562 318.792969 150.589844 C 325.082031 154.074219 342.761719 162.566406 348.921875 160.078125 C 349.785156 159.730469 350.304688 159.175781 350.5625 158.335938 C 350.855469 157.371094 350.71875 156.476562 350.128906 155.519531 C 346.570312 149.746094 329.363281 145.675781 323.03125 144.589844 C 322.3125 144.46875 321.765625 143.875 321.695312 143.148438 C 321.628906 142.417969 322.0625 141.734375 322.746094 141.480469 C 324.316406 140.902344 326.804688 139.511719 327.164062 138.371094 C 327.214844 138.214844 327.242188 138.015625 326.988281 137.652344 C 326.019531 136.273438 320.734375 137.8125 316.59375 140.058594 C 315.878906 140.449219 314.980469 140.242188 314.507812 139.574219 C 314.035156 138.910156 314.128906 137.996094 314.730469 137.445312 C 316.335938 135.976562 319.417969 132.226562 318.144531 130.671875 C 316.871094 129.886719 310.085938 133.300781 303.789062 137.886719 L 299.882812 145.34375 C 300.761719 150.320312 303.015625 156.917969 305.230469 157.109375 C 305.820312 157.160156 306.070312 156.984375 306.230469 156.804688 C 307.148438 155.804688 307.125 152.835938 306.816406 151.046875 C 306.6875 150.292969 307.101562 149.546875 307.816406 149.265625 C 308.007812 149.191406 308.207031 149.152344 308.40625 149.152344 Z M 308.40625 149.152344 " fill-opacity="1" fill-rule="nonzero"/><path fill="#cfff99" d="M 120.445312 309.953125 C 115.144531 309.953125 110.480469 312.625 107.691406 316.6875 C 104.953125 312.34375 100.148438 309.4375 94.636719 309.4375 C 89.785156 309.4375 85.507812 311.71875 82.671875 315.214844 C 82.265625 314.140625 81.773438 313.109375 81.152344 312.164062 C 87.984375 310.558594 93.089844 304.457031 93.089844 297.128906 C 93.089844 296.269531 92.972656 295.445312 92.835938 294.628906 C 95.652344 298.472656 100.160156 300.996094 105.289062 300.996094 C 113.832031 300.996094 120.753906 294.066406 120.753906 285.519531 C 120.753906 276.96875 113.828125 270.042969 105.289062 270.042969 C 96.746094 270.042969 89.820312 276.96875 89.820312 285.519531 C 89.820312 286.375 89.941406 287.199219 90.074219 288.019531 C 87.261719 284.175781 82.75 281.648438 77.625 281.648438 C 69.425781 281.648438 62.785156 288.054688 62.257812 296.125 C 59.5 293.566406 55.835938 291.96875 51.777344 291.96875 C 43.234375 291.96875 36.3125 298.898438 36.3125 307.445312 C 36.3125 315.996094 43.234375 322.925781 51.777344 322.925781 C 52.191406 322.925781 52.582031 322.835938 52.992188 322.800781 C 54.042969 330.324219 60.433594 336.132812 68.242188 336.132812 C 73.09375 336.132812 77.367188 333.851562 80.203125 330.355469 C 82.410156 336.207031 88.015625 340.394531 94.636719 340.394531 C 99.933594 340.394531 104.601562 337.722656 107.386719 333.65625 C 110.128906 338.003906 114.933594 340.910156 120.445312 340.910156 C 128.988281 340.910156 135.910156 333.980469 135.910156 325.433594 C 135.910156 316.882812 128.984375 309.953125 120.445312 309.953125 Z M 120.445312 309.953125 " fill-opacity="1" fill-rule="nonzero"/><path fill="#231f20" d="M 120.445312 342.523438 C 115.320312 342.523438 110.5625 340.246094 107.335938 336.335938 C 104.113281 339.921875 99.507812 342.007812 94.636719 342.007812 C 88.4375 342.007812 82.726562 338.550781 79.746094 333.199219 C 76.605469 336.113281 72.527344 337.746094 68.238281 337.746094 C 60.324219 337.746094 53.457031 332.167969 51.671875 324.539062 C 42.300781 324.484375 34.695312 316.839844 34.695312 307.445312 C 34.695312 298.019531 42.355469 290.351562 51.777344 290.351562 C 55.09375 290.351562 58.3125 291.332031 61.078125 293.152344 C 62.878906 285.601562 69.664062 280.035156 77.621094 280.035156 C 81.578125 280.035156 85.296875 281.375 88.289062 283.808594 C 89.148438 275.183594 96.445312 268.425781 105.285156 268.425781 C 114.703125 268.425781 122.367188 276.09375 122.367188 285.519531 C 122.367188 294.945312 114.703125 302.613281 105.285156 302.613281 C 101.328125 302.613281 97.609375 301.273438 94.621094 298.839844 C 94.261719 302.429688 92.796875 305.726562 90.523438 308.332031 C 91.855469 307.996094 93.234375 307.820312 94.632812 307.820312 C 99.757812 307.820312 104.515625 310.101562 107.746094 314.011719 C 110.964844 310.425781 115.570312 308.335938 120.445312 308.335938 C 129.863281 308.335938 137.523438 316.003906 137.523438 325.429688 C 137.523438 334.859375 129.863281 342.523438 120.445312 342.523438 Z M 107.386719 332.042969 L 107.417969 332.042969 C 107.960938 332.050781 108.460938 332.335938 108.753906 332.796875 C 111.316406 336.863281 115.6875 339.292969 120.445312 339.292969 C 128.078125 339.292969 134.292969 333.074219 134.292969 325.429688 C 134.292969 317.789062 128.082031 311.570312 120.445312 311.570312 C 115.882812 311.570312 111.613281 313.824219 109.023438 317.601562 C 108.714844 318.050781 108.214844 318.277344 107.660156 318.304688 C 107.117188 318.292969 106.613281 318.011719 106.324219 317.550781 C 103.761719 313.480469 99.390625 311.054688 94.632812 311.054688 C 90.496094 311.054688 86.59375 312.941406 83.925781 316.234375 C 83.5625 316.683594 82.984375 316.90625 82.410156 316.8125 C 81.839844 316.71875 81.363281 316.328125 81.160156 315.785156 C 80.757812 314.726562 80.316406 313.832031 79.800781 313.050781 C 79.511719 312.609375 79.453125 312.054688 79.648438 311.5625 C 79.84375 311.070312 80.265625 310.707031 80.78125 310.585938 C 87.074219 309.109375 91.472656 303.574219 91.472656 297.125 C 91.472656 296.359375 91.363281 295.621094 91.238281 294.886719 C 91.121094 294.148438 91.519531 293.421875 92.210938 293.132812 C 92.898438 292.847656 93.695312 293.066406 94.136719 293.667969 C 96.792969 297.296875 100.855469 299.378906 105.285156 299.378906 C 112.921875 299.378906 119.136719 293.160156 119.136719 285.515625 C 119.136719 277.875 112.921875 271.65625 105.285156 271.65625 C 97.648438 271.65625 91.433594 277.875 91.433594 285.515625 C 91.433594 286.285156 91.542969 287.023438 91.664062 287.753906 C 91.785156 288.492188 91.386719 289.21875 90.695312 289.507812 C 90.007812 289.796875 89.210938 289.578125 88.769531 288.972656 C 86.109375 285.34375 82.046875 283.265625 77.621094 283.265625 C 70.382812 283.265625 64.339844 288.957031 63.867188 296.230469 C 63.828125 296.851562 63.433594 297.394531 62.855469 297.625 C 62.273438 297.855469 61.613281 297.734375 61.160156 297.308594 C 58.566406 294.90625 55.234375 293.582031 51.777344 293.582031 C 44.136719 293.582031 37.921875 299.800781 37.921875 307.445312 C 37.921875 315.085938 44.136719 321.304688 51.777344 321.304688 C 51.957031 321.304688 52.125 321.277344 52.300781 321.253906 L 52.859375 321.1875 C 53.703125 321.128906 54.46875 321.726562 54.585938 322.574219 C 55.539062 329.378906 61.410156 334.511719 68.238281 334.511719 C 72.375 334.511719 76.277344 332.625 78.945312 329.332031 C 79.308594 328.882812 79.878906 328.660156 80.460938 328.753906 C 81.03125 328.847656 81.507812 329.238281 81.714844 329.78125 C 83.738281 335.160156 88.933594 338.773438 94.632812 338.773438 C 99.195312 338.773438 103.464844 336.519531 106.054688 332.738281 C 106.355469 332.304688 106.855469 332.042969 107.386719 332.042969 Z M 107.386719 332.042969 " fill-opacity="1" fill-rule="nonzero"/><path fill="#ffd6e0" d="M 134.851562 234.84375 C 134.851562 234.84375 124.402344 270.613281 98.558594 284.921875 C 72.714844 299.230469 49.570312 297.621094 50.71875 310.511719 C 53.191406 338.304688 169.722656 334.453125 181.019531 329.5 C 192.316406 324.546875 134.851562 234.84375 134.851562 234.84375 Z M 134.851562 234.84375 " fill-opacity="1" fill-rule="nonzero"/><path fill="#231f20" d="M 137.03125 334.765625 C 108.261719 334.765625 73.742188 331.722656 58.078125 322.441406 C 52.53125 319.15625 49.511719 315.191406 49.109375 310.65625 C 48.308594 301.679688 57.199219 298.847656 69.503906 294.929688 C 77.511719 292.382812 87.480469 289.207031 97.777344 283.507812 C 122.726562 269.695312 133.199219 234.738281 133.300781 234.386719 C 133.480469 233.78125 133.996094 233.335938 134.621094 233.242188 C 135.261719 233.152344 135.871094 233.4375 136.214844 233.96875 C 141.511719 242.238281 187.84375 315.128906 183.824219 328.417969 C 183.359375 329.957031 182.394531 330.660156 181.667969 330.976562 C 176.929688 333.054688 158.59375 334.765625 137.03125 334.765625 Z M 135.324219 238.585938 C 132.035156 247.902344 121.113281 274.28125 99.339844 286.335938 C 88.761719 292.191406 78.628906 295.417969 70.480469 298.011719 C 57.835938 302.039062 51.78125 304.246094 52.328125 310.371094 C 52.632812 313.808594 55.121094 316.933594 59.722656 319.660156 C 86.878906 335.746094 171.710938 331.8125 180.371094 328.015625 C 180.441406 327.988281 180.597656 327.917969 180.730469 327.480469 C 183.367188 318.761719 155.675781 270.636719 135.324219 238.585938 Z M 135.324219 238.585938 " fill-opacity="1" fill-rule="nonzero"/><path fill="#ffd6e0" d="M 265.703125 183.308594 C 265.703125 183.308594 293.75 171.199219 305.847656 157.71875 C 317.945312 144.234375 317.867188 129.925781 331.242188 131.300781 C 344.617188 132.679688 362.433594 189.058594 277.5 227.59375 Z M 265.703125 183.308594 " fill-opacity="1" fill-rule="nonzero"/><path fill="#3c2415" d="M 277.5 229.210938 C 277.265625 229.210938 277.027344 229.160156 276.808594 229.054688 C 276.378906 228.851562 276.0625 228.472656 275.941406 228.011719 L 264.144531 183.726562 C 263.9375 182.949219 264.328125 182.140625 265.0625 181.824219 C 265.339844 181.703125 292.925781 169.699219 304.644531 156.636719 C 308.914062 151.882812 311.625 147.011719 314.019531 142.71875 C 318.210938 135.203125 321.820312 128.722656 331.40625 129.695312 C 336.992188 130.269531 342.019531 137.585938 343.632812 147.496094 C 347.4375 170.84375 332.238281 204.535156 278.167969 229.066406 C 277.953125 229.164062 277.726562 229.210938 277.5 229.210938 Z M 267.621094 184.226562 L 278.570312 225.324219 C 329.570312 201.628906 344.015625 169.9375 340.445312 148.011719 C 338.976562 139.011719 334.53125 133.265625 331.074219 132.910156 C 323.617188 132.132812 321.0625 136.714844 316.839844 144.292969 C 314.367188 148.738281 311.558594 153.769531 307.050781 158.796875 C 296.195312 170.894531 273.332031 181.65625 267.621094 184.226562 Z M 267.621094 184.226562 " fill-opacity="1" fill-rule="nonzero"/><path fill="#ffd6e0" d="M 129.34375 172.640625 C 129.34375 172.640625 108.804688 175.167969 116.492188 193.507812 C 116.492188 193.507812 106.804688 198.78125 113.230469 207.210938 C 113.230469 207.210938 58.984375 341.101562 204.023438 344.199219 C 349.058594 347.300781 275.960938 207.632812 275.960938 207.632812 C 275.960938 207.632812 288.601562 197.515625 277.644531 189.714844 C 266.691406 181.914062 129.34375 172.640625 129.34375 172.640625 Z M 129.34375 172.640625 " fill-opacity="1" fill-rule="nonzero"/><path fill="#3c2415" d="M 208.695312 345.867188 C 207.144531 345.867188 205.578125 345.851562 203.988281 345.816406 C 160.527344 344.886719 130.4375 332.164062 114.539062 307.996094 C 89.433594 269.820312 108.617188 214.894531 111.40625 207.449219 C 109.667969 204.871094 109.058594 202.28125 109.601562 199.738281 C 110.324219 196.351562 112.9375 194.011719 114.507812 192.875 C 112.589844 187.636719 112.707031 183.105469 114.859375 179.386719 C 118.925781 172.367188 128.730469 171.085938 129.144531 171.035156 C 129.246094 171.023438 129.347656 171.019531 129.453125 171.027344 C 143.558594 171.980469 267.574219 180.558594 278.582031 188.398438 C 281.902344 190.761719 283.632812 193.597656 283.722656 196.820312 C 283.863281 201.824219 279.886719 206.203125 277.964844 208.015625 C 282.554688 217.1875 310.296875 276.089844 286.652344 314.265625 C 273.660156 335.246094 247.445312 345.867188 208.695312 345.867188 Z M 129.40625 174.261719 C 128.28125 174.433594 120.667969 175.789062 117.648438 181.019531 C 115.867188 184.109375 115.980469 188.097656 117.984375 192.882812 C 118.304688 193.644531 117.992188 194.527344 117.269531 194.925781 C 117.230469 194.949219 113.46875 197.058594 112.757812 200.429688 C 112.375 202.25 112.964844 204.203125 114.511719 206.230469 C 114.859375 206.6875 114.941406 207.289062 114.726562 207.820312 C 114.488281 208.40625 91.328125 266.835938 117.246094 306.230469 C 132.523438 329.449219 161.730469 341.679688 204.054688 342.582031 C 244.167969 343.445312 271.035156 333.34375 283.902344 312.566406 C 308.085938 273.53125 274.867188 209.03125 274.53125 208.382812 C 274.171875 207.699219 274.347656 206.855469 274.949219 206.371094 C 275.007812 206.324219 280.640625 201.734375 280.496094 196.902344 C 280.433594 194.75 279.15625 192.773438 276.710938 191.03125 C 268.042969 184.859375 167.609375 176.847656 129.40625 174.261719 Z M 129.40625 174.261719 " fill-opacity="1" fill-rule="nonzero"/><path fill="#ffd6e0" d="M 134.503906 317.496094 C 134.503906 317.496094 136.296875 366.589844 152.726562 366.589844 C 169.15625 366.589844 179.902344 334.96875 179.902344 334.96875 Z M 134.503906 317.496094 " fill-opacity="1" fill-rule="nonzero"/><g clip-path="url(#e6f815855c)"><path fill="#3c2415" d="M 152.726562 368.207031 C 135.242188 368.207031 133.078125 322.742188 132.890625 317.554688 C 132.855469 316.664062 133.554688 315.914062 134.445312 315.882812 C 135.292969 315.851562 136.085938 316.546875 136.117188 317.441406 C 136.601562 330.664062 140.53125 364.976562 152.726562 364.976562 C 167.828125 364.976562 178.269531 334.753906 178.371094 334.449219 C 178.65625 333.605469 179.570312 333.152344 180.421875 333.4375 C 181.265625 333.726562 181.71875 334.644531 181.429688 335.492188 C 180.976562 336.824219 170.117188 368.207031 152.726562 368.207031 Z M 152.726562 368.207031 " fill-opacity="1" fill-rule="nonzero"/></g><path fill="#ffd6e0" d="M 228.195312 334.96875 C 228.195312 334.96875 238.9375 366.589844 255.371094 366.589844 C 271.800781 366.589844 273.589844 317.496094 273.589844 317.496094 Z M 228.195312 334.96875 " fill-opacity="1" fill-rule="nonzero"/><g clip-path="url(#f2b08e940e)"><path fill="#3c2415" d="M 255.367188 368.207031 C 237.980469 368.207031 227.117188 336.824219 226.664062 335.488281 C 226.375 334.644531 226.828125 333.726562 227.671875 333.4375 C 228.515625 333.148438 229.433594 333.605469 229.722656 334.449219 C 229.828125 334.753906 240.285156 364.972656 255.371094 364.972656 C 267.566406 364.972656 271.492188 330.660156 271.976562 317.4375 C 272.007812 316.542969 272.855469 315.835938 273.648438 315.882812 C 274.542969 315.914062 275.238281 316.664062 275.203125 317.554688 C 275.015625 322.742188 272.851562 368.207031 255.367188 368.207031 Z M 255.367188 368.207031 " fill-opacity="1" fill-rule="nonzero"/></g><path fill="#ffd6e0" d="M 182.441406 234.214844 L 131.027344 225.136719 C 131.027344 225.136719 149.402344 277.140625 171.699219 271.089844 C 183.816406 268.335938 182.441406 234.214844 182.441406 234.214844 Z M 182.441406 234.214844 " fill-opacity="1" fill-rule="nonzero"/><path fill="#3c2415" d="M 168.007812 273.210938 C 146.5625 273.210938 130.230469 227.726562 129.503906 225.675781 C 129.207031 224.832031 129.648438 223.910156 130.488281 223.613281 C 131.328125 223.3125 132.253906 223.753906 132.550781 224.597656 C 132.726562 225.101562 150.679688 275.089844 171.273438 269.527344 C 180.199219 267.5 181.191406 243.398438 180.828125 234.28125 C 180.792969 233.390625 181.484375 232.636719 182.378906 232.601562 C 183.222656 232.503906 184.019531 233.257812 184.054688 234.152344 C 184.203125 237.78125 185.109375 269.699219 172.054688 272.664062 C 170.6875 273.035156 169.339844 273.210938 168.007812 273.210938 Z M 168.007812 273.210938 " fill-opacity="1" fill-rule="nonzero"/><path fill="#4e2800" d="M 242.65625 220.835938 C 241.898438 220.835938 241.222656 220.300781 241.070312 219.523438 C 240.902344 218.648438 241.476562 217.800781 242.351562 217.632812 C 263.1875 213.621094 274.988281 206.335938 275.101562 206.261719 C 275.855469 205.792969 276.851562 206.015625 277.328125 206.773438 C 277.804688 207.53125 277.574219 208.527344 276.820312 209.003906 C 276.324219 209.3125 264.445312 216.667969 242.960938 220.808594 C 242.859375 220.828125 242.757812 220.835938 242.65625 220.835938 Z M 242.65625 220.835938 " fill-opacity="1" fill-rule="nonzero"/><path fill="#4e2800" d="M 239.050781 220.222656 C 239.050781 220.429688 239.011719 220.625 238.933594 220.816406 C 238.855469 221.007812 238.742188 221.175781 238.597656 221.320312 C 238.453125 221.464844 238.285156 221.578125 238.09375 221.65625 C 237.902344 221.738281 237.707031 221.777344 237.5 221.777344 C 237.292969 221.777344 237.09375 221.738281 236.90625 221.65625 C 236.714844 221.578125 236.546875 221.464844 236.402344 221.320312 C 236.257812 221.175781 236.144531 221.007812 236.066406 220.816406 C 235.988281 220.625 235.945312 220.429688 235.945312 220.222656 C 235.945312 220.015625 235.988281 219.820312 236.066406 219.628906 C 236.144531 219.4375 236.257812 219.269531 236.402344 219.125 C 236.546875 218.976562 236.714844 218.867188 236.90625 218.789062 C 237.09375 218.707031 237.292969 218.667969 237.5 218.667969 C 237.707031 218.667969 237.902344 218.707031 238.09375 218.789062 C 238.285156 218.867188 238.453125 218.976562 238.597656 219.125 C 238.742188 219.269531 238.855469 219.4375 238.933594 219.628906 C 239.011719 219.820312 239.050781 220.015625 239.050781 220.222656 Z M 239.050781 220.222656 " fill-opacity="1" fill-rule="nonzero"/><path fill="#ff5173" d="M 288.246094 77.632812 C 288.246094 77.632812 308.269531 84.113281 312.253906 77.710938 C 316.234375 71.308594 303.496094 67.394531 303.496094 67.394531 C 303.496094 67.394531 330.214844 64.453125 329.082031 58.585938 C 327.953125 52.71875 312.078125 54.820312 312.078125 54.820312 C 312.078125 54.820312 358.152344 23.699219 345.917969 11.898438 C 333.683594 0.0976562 303.25 40.976562 303.25 40.976562 C 303.25 40.976562 304.753906 28.542969 298.042969 29.488281 C 291.332031 30.4375 291.8125 48.351562 291.8125 48.351562 C 291.8125 48.351562 288.277344 35.511719 281.78125 36.929688 C 275.285156 38.347656 279.761719 65.664062 279.761719 65.664062 Z M 288.246094 77.632812 " fill-opacity="1" fill-rule="nonzero"/><path fill="#4e2800" d="M 304.160156 82.136719 C 297.214844 82.136719 289.117188 79.613281 287.75 79.171875 C 287.417969 79.066406 287.128906 78.855469 286.929688 78.570312 L 278.441406 66.597656 C 278.300781 66.398438 278.207031 66.167969 278.167969 65.925781 C 277.058594 59.160156 274.019531 36.96875 281.4375 35.347656 C 285.511719 34.453125 288.519531 37.679688 290.492188 41.082031 C 291.109375 35.394531 292.886719 28.582031 297.816406 27.886719 C 299.636719 27.628906 301.238281 28.121094 302.441406 29.300781 C 304.121094 30.949219 304.75 33.722656 304.945312 36.179688 C 311.609375 27.894531 327.917969 9.132812 339.566406 8.179688 C 342.519531 7.929688 345.03125 8.792969 347.039062 10.730469 C 348.949219 12.574219 349.796875 14.894531 349.558594 17.628906 C 348.570312 29.035156 327.433594 45.710938 317.726562 52.800781 C 323.035156 52.765625 329.769531 53.601562 330.667969 58.277344 C 330.804688 58.980469 330.789062 60.066406 329.941406 61.214844 C 327.210938 64.917969 316.429688 67.144531 309.371094 68.238281 C 311.433594 69.457031 313.472656 71.140625 314.277344 73.285156 C 314.921875 75.011719 314.695312 76.839844 313.621094 78.5625 C 311.949219 81.261719 308.253906 82.136719 304.160156 82.136719 Z M 289.25 76.257812 C 297.074219 78.703125 308.644531 80.449219 310.882812 76.855469 C 311.597656 75.703125 311.4375 74.917969 311.253906 74.421875 C 310.242188 71.710938 304.835938 69.5 303.019531 68.9375 C 302.289062 68.710938 301.816406 68.003906 301.890625 67.242188 C 301.960938 66.476562 302.558594 65.871094 303.320312 65.789062 C 311.417969 64.894531 325.097656 62.34375 327.34375 59.296875 C 327.527344 59.046875 327.507812 58.9375 327.496094 58.890625 C 326.921875 55.910156 318.085938 55.65625 312.289062 56.425781 C 311.5625 56.53125 310.835938 56.097656 310.566406 55.394531 C 310.300781 54.695312 310.550781 53.902344 311.171875 53.480469 C 320.640625 47.085938 345.40625 28.128906 346.34375 17.351562 C 346.492188 15.613281 345.988281 14.207031 344.796875 13.058594 C 343.46875 11.777344 341.839844 11.230469 339.832031 11.402344 C 326.625 12.484375 304.765625 41.648438 304.546875 41.945312 C 304.109375 42.53125 303.335938 42.75 302.652344 42.480469 C 301.972656 42.207031 301.5625 41.511719 301.648438 40.785156 C 301.96875 38.109375 301.851562 33.246094 300.175781 31.609375 C 299.847656 31.285156 299.34375 30.925781 298.269531 31.089844 C 294.277344 31.652344 293.28125 42.929688 293.425781 48.304688 C 293.445312 49.121094 292.855469 49.824219 292.046875 49.945312 C 291.230469 50.070312 290.472656 49.5625 290.253906 48.777344 C 289.441406 45.832031 286.164062 37.640625 282.125 38.507812 C 279.210938 39.144531 279.351562 52.917969 281.296875 65.03125 Z M 289.25 76.257812 " fill-opacity="1" fill-rule="nonzero"/><path fill="#ff5173" d="M 297.007812 112.820312 C 297.007812 112.820312 307.207031 128.390625 313.496094 126.191406 C 319.785156 123.992188 313.179688 114.230469 313.179688 114.230469 C 313.179688 114.230469 333.207031 127.03125 335.679688 122.363281 C 338.152344 117.695312 326.054688 110.335938 326.054688 110.335938 C 326.054688 110.335938 375.023438 114.472656 373.136719 99.558594 C 371.25 84.644531 327.648438 95.90625 327.648438 95.90625 C 327.648438 95.90625 335.574219 88.179688 330.429688 85.105469 C 325.285156 82.035156 315.6875 94.632812 315.6875 94.632812 C 315.6875 94.632812 320.367188 83.832031 315.109375 81.207031 C 309.851562 78.578125 297.796875 99.867188 297.796875 99.867188 Z M 297.007812 112.820312 " fill-opacity="1" fill-rule="nonzero"/><path fill="#4e2800" d="M 312.226562 128.019531 C 305.40625 128.019531 297.324219 116.253906 295.660156 113.703125 C 295.46875 113.414062 295.375 113.066406 295.394531 112.71875 L 296.1875 99.769531 C 296.199219 99.523438 296.273438 99.285156 296.394531 99.070312 C 300.242188 92.269531 309.855469 76.761719 315.832031 79.757812 C 319.078125 81.382812 319.53125 84.996094 319.109375 88.34375 C 322.695312 84.871094 327.535156 81.488281 331.257812 83.71875 C 332.703125 84.582031 333.5625 85.851562 333.742188 87.394531 C 333.976562 89.367188 333.019531 91.5 331.882812 93.261719 C 341.320312 91.234375 362.464844 87.574219 370.929688 93.320312 C 373.140625 94.824219 374.421875 96.851562 374.738281 99.355469 C 375.039062 101.746094 374.324219 103.863281 372.601562 105.65625 C 365.675781 112.886719 342.511719 112.773438 331.625 112.292969 C 335.214844 115.214844 339.054688 119.449219 337.105469 123.121094 C 336.792969 123.714844 336.144531 124.496094 334.859375 124.832031 C 330.972656 125.863281 322.609375 121.644531 317.101562 118.488281 C 317.753906 120.390625 318.117188 122.515625 317.515625 124.328125 C 316.984375 125.933594 315.777344 127.105469 314.027344 127.71875 C 313.441406 127.925781 312.835938 128.019531 312.226562 128.019531 Z M 298.652344 112.375 C 302.65625 118.339844 309.566406 125.878906 312.960938 124.664062 C 314.015625 124.296875 314.316406 123.714844 314.449219 123.3125 C 315.234375 120.945312 312.769531 116.503906 311.84375 115.136719 C 311.414062 114.5 311.492188 113.652344 312.023438 113.101562 C 312.558594 112.550781 313.40625 112.453125 314.050781 112.867188 C 320.542969 117.015625 331.039062 122.511719 334.039062 121.707031 C 335.398438 119.445312 329.742188 114.472656 325.214844 111.71875 C 324.578125 111.328125 324.289062 110.546875 324.519531 109.832031 C 324.75 109.121094 325.421875 108.648438 326.191406 108.726562 C 336.226562 109.570312 363.707031 110.269531 370.273438 103.417969 C 371.3125 102.335938 371.710938 101.171875 371.535156 99.761719 C 371.335938 98.199219 370.542969 96.96875 369.113281 95.996094 C 361.132812 90.570312 336.765625 95.21875 328.050781 97.472656 C 327.347656 97.644531 326.601562 97.335938 326.242188 96.699219 C 325.882812 96.058594 325.996094 95.261719 326.519531 94.75 C 328.199219 93.105469 330.773438 89.761719 330.535156 87.769531 C 330.492188 87.410156 330.347656 86.941406 329.601562 86.492188 C 326.949219 84.910156 320.492188 91 316.972656 95.613281 C 316.476562 96.261719 315.578125 96.441406 314.871094 96.027344 C 314.167969 95.613281 313.882812 94.742188 314.207031 93.992188 C 315.257812 91.550781 317.550781 84.234375 314.386719 82.652344 C 312.363281 81.628906 305.265625 90.050781 299.386719 100.34375 Z M 298.652344 112.375 " fill-opacity="1" fill-rule="nonzero"/><path fill="#ffd6e0" d="M 315.6875 129.945312 C 314.5625 123.234375 312.074219 117.367188 309.304688 111.367188 C 305.308594 102.761719 300.761719 93.9375 298.929688 82.042969 C 292.710938 41.59375 255.660156 14.023438 208.5625 8.515625 C 202.785156 7.832031 196.867188 7.476562 190.84375 7.476562 C 189.171875 7.476562 187.503906 7.503906 185.832031 7.558594 C 110.636719 9.914062 63.617188 65.328125 66.191406 118.65625 C 66.4375 124.164062 67.230469 129.675781 68.601562 135.074219 C 69.285156 137.921875 70.160156 140.773438 71.175781 143.570312 C 72.875 148.253906 75.007812 152.558594 77.5 156.503906 C 80.484375 161.273438 83.992188 165.519531 87.851562 169.328125 C 95.285156 176.65625 114.160156 189.644531 135.609375 195.695312 C 151.640625 199.4375 172.3125 202.691406 196.441406 202.621094 C 227.300781 202.53125 252.945312 197.039062 271.296875 191.570312 C 292.007812 180.292969 305.570312 168.933594 308.84375 163.820312 C 311.71875 159.328125 313.878906 154.285156 315.113281 148.636719 C 315.496094 146.992188 315.769531 145.324219 315.988281 143.570312 C 316.589844 138.550781 316.398438 134.085938 315.6875 129.945312 Z M 315.6875 129.945312 " fill-opacity="1" fill-rule="nonzero"/><path fill="#4e2800" d="M 135.609375 197.3125 C 135.464844 197.3125 135.316406 197.292969 135.171875 197.253906 C 113.292969 191.078125 94.207031 177.859375 86.71875 170.480469 C 82.597656 166.414062 79.039062 162.003906 76.132812 157.359375 C 73.523438 153.230469 71.34375 148.773438 69.65625 144.117188 C 68.589844 141.167969 67.703125 138.25 67.03125 135.449219 C 65.660156 130.039062 64.832031 124.40625 64.578125 118.730469 C 63.347656 93.195312 73.511719 66.765625 92.464844 46.222656 C 115.355469 21.417969 148.496094 7.109375 185.78125 5.941406 C 193.441406 5.695312 201.191406 6.015625 208.75 6.910156 C 258.402344 12.71875 294.425781 42.113281 300.527344 81.796875 C 302.148438 92.316406 305.9375 100.386719 309.601562 108.1875 L 310.769531 110.683594 C 313.421875 116.433594 316.101562 122.628906 317.28125 129.679688 C 318.074219 134.289062 318.175781 138.898438 317.589844 143.761719 C 317.347656 145.71875 317.050781 147.429688 316.683594 149.007812 C 315.464844 154.585938 313.285156 159.871094 310.203125 164.691406 C 304.140625 174.195312 285.636719 188.996094 271.753906 193.117188 C 270.902344 193.375 270 192.882812 269.746094 192.027344 C 269.492188 191.171875 269.980469 190.273438 270.835938 190.019531 C 284.078125 186.085938 301.710938 171.992188 307.480469 162.949219 C 310.355469 158.453125 312.394531 153.523438 313.535156 148.292969 C 313.878906 146.808594 314.15625 145.207031 314.386719 143.371094 C 314.929688 138.828125 314.835938 134.527344 314.097656 130.222656 C 312.980469 123.558594 310.394531 117.585938 307.839844 112.046875 L 306.679688 109.5625 C 302.917969 101.554688 299.027344 93.269531 297.332031 82.292969 C 291.460938 44.085938 256.542969 15.757812 208.375 10.121094 C 200.96875 9.246094 193.398438 8.933594 185.882812 9.171875 C 149.46875 10.3125 117.132812 24.253906 94.835938 48.417969 C 76.464844 68.328125 66.613281 93.898438 67.804688 118.582031 C 68.046875 124.042969 68.839844 129.457031 70.167969 134.675781 C 70.816406 137.378906 71.664062 140.179688 72.691406 143.019531 C 74.300781 147.453125 76.378906 151.699219 78.867188 155.640625 C 81.640625 160.074219 85.042969 164.289062 88.984375 168.179688 C 96.234375 175.320312 114.753906 188.128906 136.046875 194.140625 C 136.902344 194.382812 137.402344 195.277344 137.164062 196.136719 C 136.960938 196.847656 136.3125 197.3125 135.609375 197.3125 Z M 135.609375 197.3125 " fill-opacity="1" fill-rule="nonzero"/><path fill="#4e2800" d="M 158.363281 82.421875 C 158.699219 82.445312 159.035156 82.503906 159.367188 82.59375 C 159.699219 82.683594 160.027344 82.804688 160.347656 82.957031 C 160.671875 83.109375 160.984375 83.292969 161.296875 83.511719 C 161.605469 83.726562 161.90625 83.972656 162.199219 84.246094 C 162.492188 84.523438 162.777344 84.828125 163.054688 85.164062 C 163.328125 85.496094 163.59375 85.855469 163.847656 86.246094 C 164.101562 86.632812 164.34375 87.046875 164.574219 87.484375 C 164.804688 87.921875 165.023438 88.386719 165.226562 88.871094 C 165.433594 89.355469 165.621094 89.863281 165.800781 90.390625 C 165.976562 90.914062 166.140625 91.460938 166.285156 92.023438 C 166.433594 92.589844 166.566406 93.167969 166.683594 93.761719 C 166.800781 94.355469 166.898438 94.964844 166.984375 95.585938 C 167.070312 96.207031 167.136719 96.835938 167.191406 97.476562 C 167.242188 98.117188 167.277344 98.761719 167.292969 99.417969 C 167.3125 100.070312 167.316406 100.726562 167.300781 101.386719 C 167.285156 102.046875 167.253906 102.710938 167.203125 103.371094 C 167.15625 104.03125 167.089844 104.691406 167.011719 105.347656 C 166.929688 106 166.832031 106.652344 166.71875 107.296875 C 166.605469 107.9375 166.476562 108.574219 166.332031 109.199219 C 166.1875 109.824219 166.027344 110.4375 165.855469 111.039062 C 165.679688 111.640625 165.492188 112.226562 165.289062 112.800781 C 165.085938 113.371094 164.871094 113.925781 164.644531 114.460938 C 164.417969 114.996094 164.175781 115.511719 163.925781 116.007812 C 163.671875 116.503906 163.410156 116.976562 163.136719 117.425781 C 162.863281 117.878906 162.582031 118.300781 162.289062 118.703125 C 161.996094 119.101562 161.695312 119.476562 161.390625 119.824219 C 161.082031 120.171875 160.765625 120.488281 160.445312 120.777344 C 160.125 121.070312 159.800781 121.328125 159.46875 121.558594 C 159.136719 121.789062 158.804688 121.988281 158.464844 122.15625 C 158.128906 122.324219 157.789062 122.460938 157.449219 122.566406 C 157.109375 122.671875 156.765625 122.742188 156.425781 122.78125 C 156.085938 122.824219 155.746094 122.832031 155.40625 122.804688 C 155.070312 122.78125 154.734375 122.722656 154.402344 122.636719 C 154.070312 122.546875 153.742188 122.425781 153.421875 122.269531 C 153.101562 122.117188 152.785156 121.933594 152.472656 121.71875 C 152.164062 121.5 151.863281 121.253906 151.570312 120.980469 C 151.277344 120.703125 150.992188 120.398438 150.714844 120.066406 C 150.441406 119.730469 150.175781 119.371094 149.921875 118.984375 C 149.667969 118.59375 149.425781 118.179688 149.195312 117.742188 C 148.964844 117.304688 148.746094 116.84375 148.542969 116.355469 C 148.335938 115.871094 148.148438 115.367188 147.96875 114.839844 C 147.792969 114.3125 147.628906 113.765625 147.484375 113.203125 C 147.335938 112.640625 147.203125 112.058594 147.085938 111.464844 C 146.96875 110.871094 146.871094 110.261719 146.785156 109.640625 C 146.699219 109.023438 146.632812 108.390625 146.582031 107.75 C 146.527344 107.109375 146.492188 106.464844 146.476562 105.8125 C 146.457031 105.15625 146.453125 104.5 146.46875 103.839844 C 146.484375 103.179688 146.515625 102.519531 146.566406 101.855469 C 146.613281 101.195312 146.679688 100.539062 146.757812 99.882812 C 146.839844 99.226562 146.9375 98.578125 147.050781 97.933594 C 147.164062 97.289062 147.292969 96.652344 147.4375 96.027344 C 147.582031 95.402344 147.742188 94.789062 147.917969 94.1875 C 148.089844 93.585938 148.277344 93 148.480469 92.429688 C 148.683594 91.855469 148.898438 91.300781 149.125 90.765625 C 149.351562 90.230469 149.59375 89.714844 149.84375 89.21875 C 150.097656 88.722656 150.359375 88.25 150.632812 87.800781 C 150.90625 87.351562 151.1875 86.925781 151.480469 86.523438 C 151.773438 86.125 152.074219 85.75 152.378906 85.402344 C 152.6875 85.058594 153.003906 84.738281 153.324219 84.449219 C 153.644531 84.160156 153.96875 83.898438 154.300781 83.667969 C 154.632812 83.4375 154.964844 83.238281 155.304688 83.070312 C 155.640625 82.902344 155.980469 82.765625 156.320312 82.660156 C 156.664062 82.558594 157.003906 82.484375 157.34375 82.445312 C 157.683594 82.40625 158.023438 82.398438 158.363281 82.421875 Z M 158.363281 82.421875 " fill-opacity="1" fill-rule="nonzero"/><path fill="#4e2800" d="M 272.714844 101.609375 C 272.765625 102.269531 272.796875 102.929688 272.8125 103.589844 C 272.828125 104.25 272.824219 104.90625 272.804688 105.5625 C 272.789062 106.214844 272.753906 106.863281 272.699219 107.5 C 272.648438 108.140625 272.582031 108.773438 272.496094 109.390625 C 272.410156 110.011719 272.3125 110.621094 272.195312 111.214844 C 272.078125 111.808594 271.945312 112.390625 271.796875 112.953125 C 271.652344 113.515625 271.488281 114.0625 271.3125 114.589844 C 271.132812 115.117188 270.945312 115.621094 270.738281 116.105469 C 270.535156 116.59375 270.316406 117.054688 270.085938 117.492188 C 269.855469 117.933594 269.613281 118.34375 269.359375 118.734375 C 269.105469 119.121094 268.839844 119.480469 268.566406 119.816406 C 268.289062 120.148438 268.003906 120.453125 267.710938 120.730469 C 267.417969 121.007812 267.117188 121.25 266.808594 121.46875 C 266.496094 121.683594 266.179688 121.867188 265.859375 122.019531 C 265.539062 122.175781 265.210938 122.296875 264.878906 122.386719 C 264.546875 122.472656 264.210938 122.53125 263.875 122.554688 C 263.535156 122.582031 263.195312 122.574219 262.855469 122.535156 C 262.515625 122.492188 262.171875 122.421875 261.832031 122.316406 C 261.492188 122.210938 261.152344 122.074219 260.816406 121.90625 C 260.476562 121.738281 260.144531 121.539062 259.8125 121.308594 C 259.480469 121.078125 259.15625 120.820312 258.835938 120.527344 C 258.515625 120.238281 258.199219 119.921875 257.890625 119.574219 C 257.585938 119.226562 257.285156 118.851562 256.992188 118.453125 C 256.699219 118.050781 256.417969 117.628906 256.144531 117.175781 C 255.871094 116.726562 255.609375 116.253906 255.355469 115.757812 C 255.105469 115.261719 254.863281 114.746094 254.636719 114.210938 C 254.410156 113.675781 254.195312 113.121094 253.992188 112.550781 C 253.789062 111.976562 253.601562 111.390625 253.425781 110.789062 C 253.253906 110.1875 253.09375 109.574219 252.949219 108.949219 C 252.804688 108.324219 252.675781 107.6875 252.5625 107.046875 C 252.449219 106.402344 252.351562 105.753906 252.269531 105.097656 C 252.191406 104.441406 252.125 103.78125 252.078125 103.121094 C 252.027344 102.460938 251.996094 101.796875 251.980469 101.136719 C 251.964844 100.476562 251.96875 99.820312 251.988281 99.167969 C 252.003906 98.511719 252.039062 97.867188 252.089844 97.226562 C 252.144531 96.585938 252.210938 95.957031 252.296875 95.335938 C 252.382812 94.714844 252.480469 94.109375 252.597656 93.511719 C 252.714844 92.917969 252.847656 92.339844 252.996094 91.773438 C 253.140625 91.210938 253.304688 90.664062 253.480469 90.140625 C 253.660156 89.613281 253.847656 89.105469 254.054688 88.621094 C 254.257812 88.136719 254.476562 87.671875 254.707031 87.234375 C 254.9375 86.796875 255.179688 86.382812 255.433594 85.996094 C 255.6875 85.605469 255.953125 85.246094 256.226562 84.914062 C 256.503906 84.578125 256.789062 84.273438 257.082031 84 C 257.375 83.722656 257.675781 83.476562 257.984375 83.261719 C 258.296875 83.046875 258.609375 82.859375 258.933594 82.707031 C 259.253906 82.554688 259.582031 82.433594 259.914062 82.34375 C 260.246094 82.253906 260.582031 82.195312 260.917969 82.171875 C 261.257812 82.148438 261.597656 82.15625 261.9375 82.195312 C 262.277344 82.234375 262.617188 82.308594 262.960938 82.410156 C 263.300781 82.515625 263.640625 82.652344 263.976562 82.820312 C 264.316406 82.988281 264.648438 83.1875 264.980469 83.417969 C 265.3125 83.648438 265.636719 83.910156 265.957031 84.199219 C 266.277344 84.488281 266.59375 84.808594 266.902344 85.15625 C 267.207031 85.5 267.507812 85.875 267.800781 86.273438 C 268.09375 86.675781 268.375 87.101562 268.648438 87.550781 C 268.921875 88 269.183594 88.472656 269.4375 88.96875 C 269.6875 89.464844 269.929688 89.980469 270.15625 90.515625 C 270.382812 91.054688 270.597656 91.605469 270.800781 92.179688 C 271.003906 92.75 271.191406 93.335938 271.363281 93.9375 C 271.539062 94.539062 271.699219 95.152344 271.84375 95.777344 C 271.988281 96.402344 272.117188 97.039062 272.230469 97.683594 C 272.34375 98.328125 272.441406 98.976562 272.523438 99.632812 C 272.601562 100.289062 272.667969 100.945312 272.714844 101.609375 Z M 272.714844 101.609375 " fill-opacity="1" fill-rule="nonzero"/><path fill="#ffaacc" d="M 154.785156 132.804688 C 154.785156 133.1875 154.75 133.570312 154.675781 133.953125 C 154.597656 134.335938 154.488281 134.714844 154.339844 135.089844 C 154.191406 135.46875 154.007812 135.839844 153.785156 136.207031 C 153.5625 136.574219 153.308594 136.933594 153.015625 137.289062 C 152.726562 137.644531 152.398438 137.988281 152.039062 138.328125 C 151.683594 138.667969 151.292969 138.996094 150.867188 139.316406 C 150.445312 139.632812 149.992188 139.941406 149.507812 140.238281 C 149.027344 140.535156 148.515625 140.820312 147.976562 141.089844 C 147.4375 141.363281 146.875 141.621094 146.285156 141.863281 C 145.699219 142.105469 145.085938 142.335938 144.453125 142.546875 C 143.820312 142.761719 143.167969 142.957031 142.496094 143.140625 C 141.824219 143.320312 141.136719 143.484375 140.433594 143.632812 C 139.730469 143.777344 139.015625 143.90625 138.289062 144.019531 C 137.558594 144.128906 136.820312 144.222656 136.074219 144.296875 C 135.328125 144.375 134.574219 144.429688 133.816406 144.46875 C 133.058594 144.503906 132.300781 144.523438 131.539062 144.523438 C 130.777344 144.523438 130.019531 144.503906 129.261719 144.46875 C 128.503906 144.429688 127.75 144.375 127.003906 144.296875 C 126.257812 144.222656 125.519531 144.128906 124.789062 144.019531 C 124.0625 143.90625 123.347656 143.777344 122.644531 143.632812 C 121.9375 143.484375 121.25 143.320312 120.582031 143.140625 C 119.910156 142.957031 119.257812 142.761719 118.625 142.546875 C 117.992188 142.335938 117.378906 142.105469 116.792969 141.863281 C 116.203125 141.621094 115.640625 141.363281 115.101562 141.089844 C 114.5625 140.820312 114.050781 140.535156 113.570312 140.238281 C 113.085938 139.941406 112.632812 139.632812 112.210938 139.316406 C 111.785156 138.996094 111.394531 138.667969 111.035156 138.328125 C 110.679688 137.988281 110.351562 137.644531 110.0625 137.289062 C 109.769531 136.933594 109.515625 136.574219 109.292969 136.207031 C 109.070312 135.839844 108.886719 135.46875 108.738281 135.089844 C 108.589844 134.714844 108.476562 134.335938 108.402344 133.953125 C 108.328125 133.570312 108.292969 133.1875 108.292969 132.804688 C 108.292969 132.421875 108.328125 132.039062 108.402344 131.65625 C 108.476562 131.273438 108.589844 130.894531 108.738281 130.519531 C 108.886719 130.140625 109.070312 129.769531 109.292969 129.402344 C 109.515625 129.035156 109.769531 128.671875 110.0625 128.320312 C 110.351562 127.964844 110.679688 127.617188 111.035156 127.28125 C 111.394531 126.941406 111.785156 126.613281 112.210938 126.292969 C 112.632812 125.972656 113.085938 125.664062 113.570312 125.367188 C 114.050781 125.074219 114.5625 124.789062 115.101562 124.515625 C 115.640625 124.246094 116.203125 123.988281 116.792969 123.746094 C 117.378906 123.5 117.992188 123.273438 118.625 123.058594 C 119.257812 122.847656 119.910156 122.648438 120.582031 122.46875 C 121.25 122.289062 121.9375 122.125 122.644531 121.976562 C 123.347656 121.828125 124.0625 121.699219 124.789062 121.589844 C 125.519531 121.476562 126.257812 121.382812 127.003906 121.308594 C 127.75 121.234375 128.503906 121.179688 129.261719 121.140625 C 130.019531 121.101562 130.777344 121.085938 131.539062 121.085938 C 132.300781 121.085938 133.058594 121.101562 133.816406 121.140625 C 134.574219 121.179688 135.328125 121.234375 136.074219 121.308594 C 136.820312 121.382812 137.558594 121.476562 138.289062 121.589844 C 139.015625 121.699219 139.730469 121.828125 140.433594 121.976562 C 141.136719 122.125 141.824219 122.289062 142.496094 122.46875 C 143.167969 122.648438 143.820312 122.847656 144.453125 123.058594 C 145.085938 123.273438 145.699219 123.5 146.285156 123.746094 C 146.875 123.988281 147.4375 124.246094 147.976562 124.515625 C 148.515625 124.789062 149.027344 125.074219 149.507812 125.367188 C 149.992188 125.664062 150.445312 125.972656 150.867188 126.292969 C 151.292969 126.613281 151.683594 126.941406 152.039062 127.28125 C 152.398438 127.617188 152.726562 127.964844 153.015625 128.320312 C 153.308594 128.671875 153.5625 129.035156 153.785156 129.402344 C 154.007812 129.769531 154.191406 130.140625 154.339844 130.519531 C 154.488281 130.894531 154.597656 131.273438 154.675781 131.65625 C 154.75 132.039062 154.785156 132.421875 154.785156 132.804688 Z M 154.785156 132.804688 " fill-opacity="1" fill-rule="nonzero"/><path fill="#ffaacc" d="M 305.828125 132.804688 C 305.828125 133.1875 305.789062 133.570312 305.714844 133.953125 C 305.640625 134.335938 305.527344 134.714844 305.378906 135.089844 C 305.230469 135.46875 305.046875 135.839844 304.824219 136.207031 C 304.605469 136.574219 304.347656 136.933594 304.058594 137.289062 C 303.765625 137.644531 303.441406 137.988281 303.082031 138.328125 C 302.722656 138.667969 302.332031 138.996094 301.910156 139.316406 C 301.484375 139.632812 301.03125 139.941406 300.550781 140.238281 C 300.066406 140.535156 299.554688 140.820312 299.015625 141.089844 C 298.480469 141.363281 297.914062 141.621094 297.328125 141.863281 C 296.738281 142.105469 296.128906 142.335938 295.496094 142.546875 C 294.863281 142.761719 294.210938 142.957031 293.539062 143.140625 C 292.867188 143.320312 292.179688 143.484375 291.476562 143.632812 C 290.773438 143.777344 290.054688 143.90625 289.328125 144.019531 C 288.597656 144.128906 287.859375 144.222656 287.113281 144.296875 C 286.367188 144.375 285.617188 144.429688 284.859375 144.46875 C 284.101562 144.503906 283.339844 144.523438 282.578125 144.523438 C 281.816406 144.523438 281.058594 144.503906 280.300781 144.46875 C 279.542969 144.429688 278.789062 144.375 278.042969 144.296875 C 277.296875 144.222656 276.558594 144.128906 275.832031 144.019531 C 275.101562 143.90625 274.386719 143.777344 273.683594 143.632812 C 272.980469 143.484375 272.292969 143.320312 271.621094 143.140625 C 270.949219 142.957031 270.296875 142.761719 269.664062 142.546875 C 269.03125 142.335938 268.421875 142.105469 267.832031 141.863281 C 267.242188 141.621094 266.679688 141.363281 266.140625 141.089844 C 265.601562 140.820312 265.09375 140.535156 264.609375 140.238281 C 264.125 139.941406 263.671875 139.632812 263.25 139.316406 C 262.828125 138.996094 262.4375 138.667969 262.078125 138.328125 C 261.71875 137.988281 261.394531 137.644531 261.101562 137.289062 C 260.808594 136.933594 260.554688 136.574219 260.332031 136.207031 C 260.113281 135.839844 259.925781 135.46875 259.777344 135.089844 C 259.628906 134.714844 259.519531 134.335938 259.445312 133.953125 C 259.371094 133.570312 259.332031 133.1875 259.332031 132.804688 C 259.332031 132.421875 259.371094 132.039062 259.445312 131.65625 C 259.519531 131.273438 259.628906 130.894531 259.777344 130.519531 C 259.925781 130.140625 260.113281 129.769531 260.332031 129.402344 C 260.554688 129.035156 260.808594 128.671875 261.101562 128.320312 C 261.394531 127.964844 261.71875 127.617188 262.078125 127.28125 C 262.4375 126.941406 262.828125 126.613281 263.25 126.292969 C 263.671875 125.972656 264.125 125.664062 264.609375 125.367188 C 265.09375 125.074219 265.601562 124.789062 266.140625 124.515625 C 266.679688 124.246094 267.242188 123.988281 267.832031 123.746094 C 268.421875 123.5 269.03125 123.273438 269.664062 123.058594 C 270.296875 122.847656 270.949219 122.648438 271.621094 122.46875 C 272.292969 122.289062 272.980469 122.125 273.683594 121.976562 C 274.386719 121.828125 275.101562 121.699219 275.832031 121.589844 C 276.558594 121.476562 277.296875 121.382812 278.042969 121.308594 C 278.789062 121.234375 279.542969 121.179688 280.300781 121.140625 C 281.058594 121.101562 281.816406 121.085938 282.578125 121.085938 C 283.339844 121.085938 284.101562 121.101562 284.859375 121.140625 C 285.617188 121.179688 286.367188 121.234375 287.113281 121.308594 C 287.859375 121.382812 288.597656 121.476562 289.328125 121.589844 C 290.054688 121.699219 290.773438 121.828125 291.476562 121.976562 C 292.179688 122.125 292.867188 122.289062 293.539062 122.46875 C 294.210938 122.648438 294.863281 122.847656 295.496094 123.058594 C 296.128906 123.273438 296.738281 123.5 297.328125 123.746094 C 297.914062 123.988281 298.480469 124.246094 299.015625 124.515625 C 299.554688 124.789062 300.066406 125.074219 300.550781 125.367188 C 301.03125 125.664062 301.484375 125.972656 301.910156 126.292969 C 302.332031 126.613281 302.722656 126.941406 303.082031 127.28125 C 303.441406 127.617188 303.765625 127.964844 304.058594 128.320312 C 304.347656 128.671875 304.605469 129.035156 304.824219 129.402344 C 305.046875 129.769531 305.230469 130.140625 305.378906 130.519531 C 305.527344 130.894531 305.640625 131.273438 305.714844 131.65625 C 305.789062 132.039062 305.828125 132.421875 305.828125 132.804688 Z M 305.828125 132.804688 " fill-opacity="1" fill-rule="nonzero"/><path fill="#ff5173" d="M 96.820312 28.484375 C 89.015625 28.960938 89.121094 44.621094 89.121094 44.621094 C 89.121094 44.621094 83.933594 24.195312 76.039062 25.273438 C 68.140625 26.347656 73.816406 39.941406 73.816406 39.941406 C 73.816406 39.941406 26.3125 3.421875 16.242188 20.691406 C 6.171875 37.960938 68.257812 58.429688 68.257812 58.429688 C 68.257812 58.429688 49.617188 61.132812 50.214844 68.132812 C 50.8125 75.136719 81.988281 69.910156 81.988281 69.910156 C 81.988281 69.910156 68.820312 78.417969 75.375 84.386719 C 81.929688 90.355469 102.515625 76.617188 102.515625 76.617188 L 108.292969 60.355469 C 108.292969 60.355469 104.625 28.011719 96.820312 28.484375 Z M 96.820312 28.484375 " fill-opacity="1" fill-rule="nonzero"/><path fill="#4e2800" d="M 80.019531 87.476562 C 77.761719 87.476562 75.769531 86.933594 74.289062 85.582031 C 72.589844 84.035156 71.785156 82.125 71.953125 80.054688 C 72.191406 77.179688 74.269531 74.441406 76.390625 72.351562 C 68.304688 73.371094 54.5625 74.5 50.257812 71.164062 C 49.015625 70.195312 48.671875 69.054688 48.605469 68.273438 C 48.121094 62.613281 56.128906 59.519531 62.15625 58 C 49.382812 53.3125 19.046875 41.007812 14.214844 28.246094 C 13.105469 25.3125 13.320312 22.496094 14.847656 19.875 C 16.453125 17.117188 18.960938 15.386719 22.296875 14.734375 C 35.964844 12.042969 61.019531 28.707031 70.792969 35.707031 C 70.128906 32.773438 69.796875 29.148438 71.25 26.609375 C 72.191406 24.964844 73.769531 23.949219 75.820312 23.667969 C 81.613281 22.871094 85.902344 30.699219 88.339844 36.96875 C 89.367188 32.300781 91.648438 27.179688 96.722656 26.871094 C 105.382812 26.46875 108.996094 52.226562 109.894531 60.171875 C 109.996094 61.058594 109.359375 61.859375 108.476562 61.957031 C 107.546875 62.066406 106.789062 61.421875 106.6875 60.535156 C 105.007812 45.761719 100.730469 30.097656 96.996094 30.097656 C 96.96875 30.097656 96.941406 30.097656 96.917969 30.097656 C 90.824219 30.46875 90.730469 44.46875 90.734375 44.609375 C 90.738281 45.425781 90.132812 46.121094 89.324219 46.222656 C 88.503906 46.34375 87.753906 45.808594 87.554688 45.019531 C 85.972656 38.808594 81.105469 26.210938 76.253906 26.875 C 75.195312 27.019531 74.496094 27.445312 74.054688 28.214844 C 72.464844 30.992188 74.476562 37.320312 75.308594 39.316406 C 75.589844 39.992188 75.382812 40.773438 74.800781 41.222656 C 74.222656 41.667969 73.414062 41.667969 72.832031 41.222656 C 72.492188 40.957031 38.292969 14.890625 22.917969 17.90625 C 20.5 18.382812 18.773438 19.558594 17.636719 21.507812 C 16.609375 23.265625 16.480469 25.097656 17.238281 27.101562 C 22.710938 41.5625 68.300781 56.742188 68.761719 56.894531 C 69.472656 57.132812 69.929688 57.824219 69.863281 58.574219 C 69.800781 59.320312 69.230469 59.921875 68.488281 60.03125 C 62.898438 60.84375 51.472656 63.863281 51.824219 68 C 51.832031 68.089844 51.851562 68.308594 52.238281 68.609375 C 55.828125 71.394531 72.222656 69.910156 81.71875 68.320312 C 82.484375 68.195312 83.214844 68.617188 83.492188 69.328125 C 83.769531 70.042969 83.507812 70.855469 82.863281 71.269531 C 80.820312 72.59375 75.460938 76.800781 75.171875 80.328125 C 75.085938 81.402344 75.496094 82.3125 76.460938 83.195312 C 80.550781 86.917969 94.0625 80.3125 101.621094 75.273438 C 102.363281 74.78125 103.363281 74.976562 103.859375 75.722656 C 104.355469 76.464844 104.15625 77.46875 103.414062 77.964844 C 101.648438 79.136719 88.839844 87.476562 80.019531 87.476562 Z M 80.019531 87.476562 " fill-opacity="1" fill-rule="nonzero"/><path fill="#ff5173" d="M 90.8125 105.011719 C 90.8125 105.011719 76.640625 79.976562 70.453125 83.066406 C 64.269531 86.15625 69.773438 98.855469 69.773438 98.855469 C 69.773438 98.855469 58.492188 84.042969 52.4375 87.652344 C 46.390625 91.265625 55.707031 100.351562 55.707031 100.351562 C 55.707031 100.351562 4.433594 87.113281 2.21875 104.648438 C 0 122.183594 57.582031 117.320312 57.582031 117.320312 C 57.582031 117.320312 43.359375 125.976562 46.265625 131.464844 C 49.175781 136.953125 72.722656 121.898438 72.722656 121.898438 C 72.722656 121.898438 64.957031 133.382812 72.355469 135.964844 C 79.75 138.550781 91.742188 120.242188 91.742188 120.242188 Z M 90.8125 105.011719 " fill-opacity="1" fill-rule="nonzero"/><path fill="#4e2800" d="M 73.808594 137.820312 C 73.132812 137.820312 72.464844 137.71875 71.820312 137.492188 C 69.847656 136.800781 68.488281 135.488281 67.894531 133.6875 C 67.132812 131.386719 67.730469 128.636719 68.636719 126.273438 C 62.226562 130 51.921875 135.296875 47.300781 134.09375 C 45.886719 133.71875 45.179688 132.871094 44.835938 132.222656 C 42.511719 127.835938 47.558594 122.675781 51.886719 119.300781 C 39.519531 119.894531 11.308594 120.242188 3.050781 111.625 C 1.089844 109.578125 0.273438 107.164062 0.617188 104.441406 C 0.976562 101.585938 2.445312 99.265625 4.976562 97.546875 C 15.058594 90.703125 40.660156 95.328125 51.355469 97.667969 C 49.882812 95.542969 48.53125 92.84375 48.820312 90.378906 C 49.027344 88.65625 49.988281 87.230469 51.609375 86.265625 C 56.042969 83.621094 62.027344 88.167969 66.210938 92.351562 C 65.539062 88.269531 65.804688 83.582031 69.730469 81.621094 C 76.753906 78.113281 88.714844 98.03125 92.214844 104.214844 C 92.65625 104.992188 92.382812 105.976562 91.605469 106.417969 C 90.828125 106.859375 89.84375 106.585938 89.40625 105.808594 C 83.058594 94.601562 74.027344 83.066406 71.171875 84.511719 C 67.242188 86.476562 69.984375 95.28125 71.253906 98.214844 C 71.578125 98.960938 71.292969 99.835938 70.589844 100.25 C 69.882812 100.664062 68.984375 100.484375 68.488281 99.835938 C 65.089844 95.375 56.882812 86.886719 53.265625 89.039062 C 52.269531 89.632812 52.082031 90.304688 52.03125 90.753906 C 51.707031 93.503906 55.484375 97.878906 56.835938 99.195312 C 57.359375 99.707031 57.472656 100.507812 57.113281 101.144531 C 56.753906 101.785156 56.007812 102.09375 55.304688 101.917969 C 54.933594 101.820312 18.207031 92.46875 6.789062 100.222656 C 5.035156 101.414062 4.0625 102.925781 3.820312 104.847656 C 3.601562 106.578125 4.113281 108.058594 5.382812 109.382812 C 13.171875 117.515625 45.605469 116.699219 57.449219 115.707031 C 58.203125 115.617188 58.886719 116.105469 59.117188 116.816406 C 59.351562 117.53125 59.0625 118.308594 58.421875 118.699219 C 53.210938 121.875 46.199219 127.886719 47.691406 130.707031 C 47.71875 130.753906 47.78125 130.875 48.121094 130.964844 C 51.964844 131.960938 64.707031 125.101562 71.851562 120.535156 C 72.496094 120.121094 73.339844 120.222656 73.878906 120.769531 C 74.410156 121.320312 74.488281 122.167969 74.058594 122.800781 C 72.953125 124.449219 70.003906 129.789062 70.960938 132.671875 C 71.136719 133.203125 71.527344 133.964844 72.882812 134.4375 C 77.390625 136.015625 86.019531 126.023438 90.390625 119.351562 C 90.875 118.609375 91.882812 118.398438 92.625 118.886719 C 93.371094 119.378906 93.578125 120.378906 93.089844 121.125 C 91.894531 122.957031 81.90625 137.820312 73.808594 137.820312 Z M 73.808594 137.820312 " fill-opacity="1" fill-rule="nonzero"/><path fill="#ff5173" d="M 81.429688 143.585938 C 81.429688 143.585938 64.753906 131.320312 61.601562 135.171875 C 58.449219 139.027344 65.800781 145.746094 65.800781 145.746094 C 65.800781 145.746094 54.027344 139.339844 51.117188 143.496094 C 48.207031 147.652344 57.003906 150.875 57.003906 150.875 C 57.003906 150.875 19.425781 157.292969 23.132812 169.464844 C 26.835938 181.636719 63.230469 161.46875 63.230469 161.46875 C 63.230469 161.46875 56.433594 171.347656 59.957031 174.09375 C 63.484375 176.839844 74.519531 160.011719 74.519531 160.011719 C 74.519531 160.011719 72.800781 169.84375 78.417969 169.359375 C 84.039062 168.878906 86.523438 153.316406 86.523438 153.316406 Z M 81.429688 143.585938 " fill-opacity="1" fill-rule="nonzero"/><path fill="#4e2800" d="M 60.875 176.015625 C 59.996094 176.015625 59.367188 175.679688 58.964844 175.371094 C 56.242188 173.25 57.417969 168.957031 59.054688 165.480469 C 50.429688 169.804688 33.382812 177.394531 25.5625 174.21875 C 23.570312 173.414062 22.195312 171.929688 21.585938 169.933594 C 20.945312 167.820312 21.242188 165.742188 22.46875 163.75 C 26.960938 156.46875 43.945312 151.976562 52.203125 150.179688 C 50.847656 149.222656 49.578125 147.980469 49.109375 146.488281 C 48.691406 145.160156 48.929688 143.804688 49.792969 142.570312 C 51.875 139.597656 56.511719 140.300781 60.441406 141.625 C 59.125 139.234375 58.46875 136.449219 60.351562 134.148438 C 64.070312 129.597656 77 138.324219 82.386719 142.285156 C 83.105469 142.8125 83.257812 143.824219 82.730469 144.542969 C 82.203125 145.261719 81.191406 145.421875 80.472656 144.890625 C 71.910156 138.59375 63.835938 134.988281 62.847656 136.199219 C 61.207031 138.203125 64.859375 142.695312 66.890625 144.550781 C 67.492188 145.105469 67.585938 146.019531 67.113281 146.683594 C 66.640625 147.351562 65.75 147.554688 65.027344 147.164062 C 60.617188 144.769531 53.792969 142.488281 52.4375 144.425781 C 52.078125 144.9375 52.109375 145.261719 52.1875 145.519531 C 52.644531 146.96875 55.601562 148.636719 57.554688 149.359375 C 58.242188 149.609375 58.675781 150.292969 58.605469 151.023438 C 58.539062 151.753906 57.992188 152.34375 57.269531 152.46875 C 49.792969 153.746094 29.457031 158.570312 25.214844 165.449219 C 24.484375 166.632812 24.308594 167.789062 24.675781 168.992188 C 25 170.070312 25.667969 170.777344 26.769531 171.222656 C 34.117188 174.199219 55.011719 164.171875 62.441406 160.054688 C 63.097656 159.6875 63.914062 159.828125 64.417969 160.382812 C 64.921875 160.9375 64.980469 161.765625 64.554688 162.382812 C 61.757812 166.457031 59.617188 171.785156 60.945312 172.820312 C 62.347656 172.949219 68.355469 166.460938 73.167969 159.125 C 73.585938 158.488281 74.402344 158.234375 75.109375 158.507812 C 75.820312 158.789062 76.238281 159.535156 76.109375 160.289062 C 75.816406 161.988281 75.613281 165.9375 76.863281 167.304688 C 77.09375 167.546875 77.441406 167.816406 78.277344 167.75 C 81.246094 167.496094 84 158.835938 84.925781 153.0625 C 85.066406 152.179688 85.890625 151.574219 86.777344 151.722656 C 87.65625 151.863281 88.253906 152.691406 88.117188 153.574219 C 87.667969 156.378906 85.097656 170.410156 78.554688 170.972656 C 76.917969 171.105469 75.503906 170.601562 74.480469 169.484375 C 73.488281 168.394531 73 166.855469 72.789062 165.3125 C 69.59375 169.648438 64.785156 175.414062 61.484375 175.960938 C 61.269531 175.996094 61.066406 176.015625 60.875 176.015625 Z M 60.875 176.015625 " fill-opacity="1" fill-rule="nonzero"/><path fill="#4e2800" d="M 192.171875 104.132812 L 233.867188 103.679688 C 235.410156 103.664062 236.628906 104.980469 236.484375 106.515625 C 235.414062 117.890625 230.578125 159.300781 216.707031 160.71875 C 202.882812 162.132812 192.34375 119.324219 189.660156 107.28125 C 189.300781 105.667969 190.523438 104.152344 192.171875 104.132812 Z M 192.171875 104.132812 " fill-opacity="1" fill-rule="nonzero"/><path fill="#ff0075" d="M 228.75 134.558594 C 225.390625 148.363281 220.933594 157.027344 216.378906 157.511719 L 216.054688 157.511719 C 210.273438 157.511719 202.777344 143.253906 196.542969 121.398438 C 198.578125 120.976562 200.710938 120.785156 202.875 120.785156 C 214.148438 120.785156 223.90625 126.378906 228.75 134.558594 Z M 228.75 134.558594 " fill-opacity="1" fill-rule="evenodd"/></svg>