<svg xmlns="http://www.w3.org/2000/svg" xmlns:xlink="http://www.w3.org/1999/xlink" width="500" zoomAndPan="magnify" viewBox="0 0 375 374.999991" height="500" preserveAspectRatio="xMidYMid meet" version="1.0"><defs><clipPath id="04e6200e7f"><path d="M 88 137 L 287.539062 137 L 287.539062 337.5 L 88 337.5 Z M 88 137 " clip-rule="nonzero"/></clipPath><clipPath id="e9b5758bdd"><path d="M 87.410156 37.5 L 287 37.5 L 287 238 L 87.410156 238 Z M 87.410156 37.5 " clip-rule="nonzero"/></clipPath></defs><g clip-path="url(#04e6200e7f)"><path fill="#87bba2" d="M 187.4375 237.515625 L 98.058594 237.515625 C 92.132812 237.515625 87.472656 242.652344 88.121094 248.546875 C 90.523438 270.347656 100.082031 291.511719 116.78125 308.226562 C 136.296875 327.757812 161.867188 337.519531 187.4375 337.519531 C 213.007812 337.519531 238.585938 327.757812 258.09375 308.226562 C 277.601562 288.699219 287.359375 263.105469 287.359375 237.515625 C 287.359375 211.921875 277.605469 186.324219 258.09375 166.800781 C 238.578125 147.277344 213.007812 137.511719 187.4375 137.511719 Z M 187.4375 237.515625 " fill-opacity="1" fill-rule="nonzero"/></g><g clip-path="url(#e9b5758bdd)"><path fill="#364958" d="M 187.4375 137.503906 L 276.816406 137.503906 C 282.746094 137.503906 287.40625 132.367188 286.753906 126.472656 C 284.351562 104.671875 274.792969 83.507812 258.09375 66.792969 C 238.585938 47.261719 213.015625 37.5 187.4375 37.5 C 161.867188 37.5 136.289062 47.261719 116.78125 66.792969 C 97.269531 86.316406 87.515625 111.914062 87.515625 137.503906 C 87.515625 163.09375 97.269531 188.691406 116.78125 208.214844 C 136.296875 227.746094 161.867188 237.507812 187.4375 237.507812 Z M 187.4375 137.503906 " fill-opacity="1" fill-rule="nonzero"/></g></svg>